<svg width="500" height="460" viewBox="0 0 500 460" fill="none" xmlns="http://www.w3.org/2000/svg">
<rect width="500" height="460" fill="url(#paint0_linear_241_11)"/>
<path d="M141.812 247H113.98V242.664C115.035 242.234 116.051 241.922 117.027 241.727C118.043 241.492 118.941 241.18 119.723 240.789C121.48 239.93 122.359 238.289 122.359 235.867V174.988C122.359 172.527 121.48 170.867 119.723 170.008C118.941 169.617 118.043 169.324 117.027 169.129C116.051 168.895 115.035 168.562 113.98 168.133V163.738H141.812V247ZM167.711 178.035C165.992 175.105 163.785 172.938 161.09 171.531C158.395 170.086 155.641 169.363 152.828 169.363C150.055 169.363 148.121 169.441 147.027 169.598V163.738H152.77C166.637 163.738 177.262 168.035 184.645 176.629C191.207 184.285 194.488 193.855 194.488 205.34C194.488 217.254 191.09 227 184.293 234.578C176.871 242.859 166.578 247 153.414 247H147.027V241.141C148.277 241.297 150.23 241.375 152.887 241.375C155.543 241.375 158.219 240.789 160.914 239.617C163.648 238.406 165.895 236.395 167.652 233.582C171.051 228.152 172.75 218.738 172.75 205.34C172.75 192.879 171.07 183.777 167.711 178.035ZM246.133 248.758L244.609 248.816C234.336 248.816 226.055 246.805 219.766 242.781C213.438 238.68 210.273 233.387 210.273 226.902C210.273 219.754 213.34 213.738 219.473 208.855C221.387 207.332 223.516 206.023 225.859 204.93L230.371 211.961C229.707 214.266 229.375 218.094 229.375 223.445C229.375 227.742 230.996 231.609 234.238 235.047C237.559 238.602 241.523 240.691 246.133 241.316V248.758ZM249.121 193.094C254.863 189.617 257.734 184.578 257.734 177.977C257.734 175.828 257.129 173.953 255.918 172.352C254.707 170.75 252.793 169.773 250.176 169.422V161.922C255.723 162.312 260.273 164.031 263.828 167.078C267.5 170.203 269.336 174.129 269.336 178.855C269.336 185.652 265.84 191.023 258.848 194.969C256.816 196.141 254.727 197.254 252.578 198.309L249.121 193.094ZM295.938 230.945C294.688 236.609 292.734 240.828 290.078 243.602C287.461 246.336 283.613 247.703 278.535 247.703C273.496 247.703 268.77 245.535 264.355 241.199C260.293 244.91 255.566 247.273 250.176 248.289V241.316C253.73 240.926 256.797 239.5 259.375 237.039C258.32 235.867 256.992 234.48 255.391 232.879C253.789 231.277 252.051 229.5 250.176 227.547C248.301 225.594 246.328 223.504 244.258 221.277C242.227 219.012 240.215 216.668 238.223 214.246C236.27 211.785 234.395 209.266 232.598 206.688C230.84 204.07 229.297 201.453 227.969 198.836C225.039 193.016 223.574 188.152 223.574 184.246C223.574 180.34 224.102 177.117 225.156 174.578C226.211 172.039 227.715 169.852 229.668 168.016C233.691 164.344 239.18 162.312 246.133 161.922V169.422C243.672 169.812 241.836 170.73 240.625 172.176C239.414 173.621 238.809 175.477 238.809 177.742C238.809 182.195 241.074 187.742 245.605 194.383C253.574 206.102 261.895 216.082 270.566 224.324C272.051 220.379 272.793 217.098 272.793 214.48C272.793 211.824 272.441 210.066 271.738 209.207C271.035 208.309 270.176 207.664 269.16 207.273C268.184 206.883 267.148 206.609 266.055 206.453C264.961 206.258 264.043 205.926 263.301 205.457V201.18H291.836V205.34C290.938 205.73 290.039 206.043 289.141 206.277C288.242 206.512 287.402 206.844 286.621 207.273C284.824 208.211 283.496 209.852 282.637 212.195C279.902 219.773 277.344 225.535 274.961 229.48C278.633 233.426 281.035 235.633 282.168 236.102C283.34 236.57 284.316 236.805 285.098 236.805C285.918 236.805 286.641 236.688 287.266 236.453C287.93 236.18 288.516 235.73 289.023 235.105C289.922 234.012 290.762 231.98 291.543 229.012L295.938 230.945ZM371.781 207.859V174.988C371.781 172.566 370.824 170.906 368.91 170.008C368.051 169.578 367.074 169.246 365.98 169.012C364.887 168.738 363.773 168.367 362.641 167.898V163.738H388.656V167.898C387.562 168.367 386.469 168.738 385.375 169.012C384.32 169.246 383.363 169.578 382.504 170.008C380.59 170.906 379.633 172.566 379.633 174.988V219.461L371.781 207.859ZM325.023 190.398V234.402C325.023 238.035 327.172 240.438 331.469 241.609C332.602 241.922 333.676 242.312 334.691 242.781V247H307.914V242.781C308.891 242.312 309.906 241.922 310.961 241.609C312.055 241.297 313.051 240.867 313.949 240.32C316.098 239.109 317.172 237.137 317.172 234.402V178.738L325.023 190.398ZM319.691 173.172C317.816 172.82 316.156 172.508 314.711 172.234C311.43 171.688 309.34 171.297 308.441 171.062V163.738H335.688L379.633 228.777V247H369.496L319.691 173.172Z" fill="black"/>
<path d="M188 312.513L187.024 299.378C186.812 301.591 186.422 303.659 185.852 305.579C185.282 307.492 184.635 308.973 183.911 310.022C183.187 311.064 182.446 311.797 181.689 312.22C180.933 312.643 180.184 312.854 179.443 312.854C178.996 312.854 178.65 312.761 178.406 312.574C178.17 312.395 178.052 312.175 178.052 311.915C178.052 311.695 178.137 311.504 178.308 311.341C178.487 311.178 178.711 311.097 178.979 311.097C179.175 311.097 179.456 311.141 179.822 311.231C180.155 311.32 180.432 311.365 180.652 311.365C181.034 311.365 181.433 311.223 181.848 310.938C182.475 310.515 183.093 309.758 183.704 308.667C184.322 307.569 184.871 306.043 185.352 304.09C185.84 302.129 186.145 300.216 186.267 298.353C184.42 298.353 182.918 298.812 181.763 299.732C180.843 300.464 180.383 301.282 180.383 302.186C180.383 302.584 180.603 303.064 181.042 303.626C181.278 303.927 181.396 304.171 181.396 304.358C181.396 304.57 181.327 304.745 181.189 304.883C181.059 305.022 180.9 305.091 180.713 305.091C180.396 305.091 180.115 304.912 179.871 304.554C179.537 304.074 179.37 303.504 179.37 302.845C179.37 301.917 179.679 301.03 180.298 300.184C180.924 299.329 181.787 298.682 182.886 298.243C183.993 297.795 185.286 297.567 186.768 297.559C187.565 297.559 188.204 297.486 188.684 297.339C188.66 298.072 188.647 298.466 188.647 298.523C188.647 298.597 188.66 298.764 188.684 299.024L189.404 308.301C191.366 304.875 193.282 302.055 195.154 299.842C196.48 298.271 197.636 297.209 198.621 296.656C198.059 298.202 197.457 300.241 196.814 302.771L195.325 308.631C195.243 308.956 195.133 309.432 194.995 310.059L194.702 311.365C195.321 311.512 195.886 311.585 196.399 311.585C196.814 311.585 197.257 311.536 197.729 311.438L197.571 312.146C197.156 312.22 196.834 312.256 196.606 312.256C196.273 312.256 195.793 312.22 195.166 312.146C194.653 312.081 194.198 312.049 193.799 312.049C193.376 312.049 192.896 312.13 192.358 312.293C192.806 311.121 193.274 309.546 193.762 307.569L194.702 303.833C195.101 302.222 195.447 301.115 195.74 300.513C195.089 301.254 194.084 302.613 192.725 304.59C191.634 306.185 190.413 308.204 189.062 310.645L188 312.513ZM207.922 301.526L208.728 301.355L207.812 304.444C207.446 305.673 207.1 307.089 206.775 308.692C206.596 309.563 206.506 310.124 206.506 310.376C206.506 310.629 206.608 310.755 206.812 310.755C206.942 310.755 207.149 310.669 207.434 310.499C207.939 310.197 208.423 309.823 208.887 309.375L209.277 309.852C208.35 310.698 207.756 311.211 207.495 311.39C206.974 311.748 206.478 312.012 206.006 312.183C205.697 312.297 205.396 312.354 205.103 312.354C204.891 312.354 204.732 312.305 204.626 312.208C204.521 312.11 204.468 311.967 204.468 311.78C204.468 311.658 204.5 311.491 204.565 311.28L205.054 309.62C204.354 310.458 203.52 311.178 202.551 311.78C201.957 312.155 201.412 312.342 200.916 312.342C200.444 312.342 200.081 312.175 199.829 311.841C199.487 311.394 199.316 310.808 199.316 310.083C199.316 309.221 199.544 308.261 200 307.203C200.464 306.145 201.082 305.184 201.855 304.322C202.629 303.459 203.442 302.824 204.297 302.417C204.956 302.108 205.802 301.954 206.836 301.954C207.096 301.954 207.361 301.97 207.629 302.002L207.922 301.526ZM206.409 303.394C205.969 303.305 205.599 303.26 205.298 303.26C204.565 303.26 203.927 303.463 203.381 303.87C202.836 304.269 202.327 304.993 201.855 306.043C201.392 307.085 201.16 308.126 201.16 309.168C201.16 309.721 201.253 310.12 201.44 310.364C201.628 310.608 201.872 310.73 202.173 310.73C202.734 310.73 203.337 310.429 203.979 309.827C204.622 309.217 205.094 308.342 205.396 307.203L206.409 303.394ZM218.311 301.648L219.299 301.429C218.705 303.333 218.16 305.241 217.664 307.154C217.306 308.521 217.057 309.66 216.919 310.572C216.846 311.028 216.805 311.605 216.797 312.305C216.781 313.477 216.65 314.421 216.406 315.137C216.064 316.138 215.426 316.944 214.49 317.554C213.562 318.165 212.459 318.47 211.182 318.47C210.083 318.47 209.216 318.209 208.582 317.688C207.955 317.176 207.642 316.586 207.642 315.918C207.642 315.259 207.894 314.645 208.398 314.075C208.773 313.644 209.554 313.123 210.742 312.513C211.344 312.195 211.91 311.87 212.439 311.536C211.837 311.845 211.369 312 211.035 312C210.734 312 210.465 311.862 210.229 311.585C210.002 311.3 209.888 310.926 209.888 310.462C209.888 308.965 210.331 307.479 211.218 306.006C212.113 304.525 213.188 303.414 214.441 302.674C215.214 302.218 216.182 301.99 217.346 301.99C217.574 301.99 217.855 301.998 218.188 302.015L218.311 301.648ZM216.943 303.455C216.553 303.382 216.207 303.345 215.906 303.345C215.133 303.345 214.469 303.549 213.916 303.956C213.363 304.362 212.891 305.046 212.5 306.006C211.955 307.365 211.682 308.509 211.682 309.437C211.682 309.819 211.788 310.14 212 310.401C212.219 310.661 212.463 310.792 212.732 310.792C213.057 310.792 213.46 310.637 213.94 310.328C214.421 310.01 214.811 309.616 215.112 309.144C215.422 308.672 215.735 307.858 216.052 306.702L216.943 303.455ZM215.283 310.108C214.73 310.604 213.664 311.398 212.085 312.488C210.693 313.432 209.839 314.112 209.521 314.527C209.204 314.95 209.045 315.398 209.045 315.87C209.045 316.333 209.249 316.749 209.656 317.115C210.071 317.489 210.571 317.676 211.157 317.676C211.711 317.676 212.248 317.538 212.769 317.261C213.289 316.993 213.741 316.598 214.124 316.077C214.514 315.564 214.783 314.983 214.929 314.332C215.076 313.681 215.153 312.818 215.161 311.744C215.169 311.508 215.21 310.962 215.283 310.108ZM225.305 296.485C225.557 296.485 225.765 296.57 225.928 296.741C226.09 296.904 226.172 297.116 226.172 297.376C226.172 297.734 226.046 298.051 225.793 298.328C225.549 298.597 225.273 298.731 224.963 298.731C224.719 298.731 224.516 298.646 224.353 298.475C224.19 298.304 224.109 298.08 224.109 297.803C224.109 297.437 224.227 297.128 224.463 296.875C224.699 296.615 224.98 296.485 225.305 296.485ZM220.496 304.566L219.958 304.151C220.772 303.256 221.513 302.621 222.18 302.247C222.856 301.864 223.429 301.673 223.901 301.673C224.162 301.673 224.361 301.73 224.5 301.844C224.638 301.958 224.707 302.112 224.707 302.308C224.707 302.544 224.443 303.545 223.914 305.311C223.051 308.2 222.62 309.941 222.62 310.535C222.62 310.649 222.648 310.747 222.705 310.828C222.762 310.901 222.823 310.938 222.888 310.938C223.149 310.938 223.816 310.433 224.89 309.424L225.366 309.888C224.251 310.938 223.438 311.609 222.925 311.902C222.412 312.195 221.993 312.342 221.667 312.342C221.383 312.342 221.155 312.252 220.984 312.073C220.821 311.894 220.74 311.646 220.74 311.329C220.74 310.311 221.35 307.825 222.571 303.87C222.628 303.683 222.656 303.516 222.656 303.37C222.656 303.207 222.583 303.125 222.437 303.125C222.274 303.125 222.087 303.191 221.875 303.321C221.672 303.451 221.212 303.866 220.496 304.566ZM232.812 309.351L233.069 310.059C231.132 311.581 229.496 312.342 228.162 312.342C227.454 312.342 226.937 312.09 226.611 311.585C226.294 311.08 226.135 310.442 226.135 309.668C226.135 308.383 226.477 307.06 227.161 305.701C227.844 304.342 228.674 303.3 229.651 302.576C230.416 302.015 231.278 301.734 232.239 301.734C232.841 301.734 233.297 301.848 233.606 302.076C233.915 302.304 234.07 302.58 234.07 302.906C234.07 303.158 233.988 303.366 233.826 303.528C233.663 303.683 233.435 303.76 233.142 303.76C232.857 303.76 232.491 303.63 232.043 303.37C231.58 303.093 231.193 302.955 230.884 302.955C230.485 302.955 230.086 303.138 229.688 303.504C229.297 303.862 228.923 304.562 228.564 305.604C228.206 306.645 228.027 307.691 228.027 308.741C228.027 309.514 228.178 310.112 228.479 310.535C228.699 310.861 229.008 311.023 229.407 311.023C230.359 311.023 231.494 310.466 232.812 309.351ZM252.527 302.674H251.868C251.908 302.039 251.929 301.53 251.929 301.148C251.929 300 251.689 299.203 251.208 298.755C250.736 298.3 250.138 298.072 249.414 298.072C248.446 298.072 247.441 298.466 246.399 299.256C245.357 300.037 244.462 301.262 243.713 302.93C242.965 304.59 242.59 306.299 242.59 308.057C242.59 309.758 242.936 311.064 243.628 311.976C244.328 312.879 245.203 313.331 246.252 313.331C247.677 313.331 248.983 312.476 250.171 310.767C250.293 310.596 250.419 310.511 250.549 310.511C250.655 310.511 250.745 310.547 250.818 310.621C250.891 310.686 250.928 310.763 250.928 310.853C250.928 311.072 250.655 311.504 250.11 312.146C249.573 312.789 248.893 313.322 248.071 313.746C247.249 314.177 246.44 314.393 245.642 314.393C244.682 314.393 243.791 314.14 242.969 313.636C242.147 313.139 241.508 312.427 241.052 311.5C240.597 310.572 240.369 309.469 240.369 308.191C240.369 306.409 240.833 304.635 241.76 302.869C242.696 301.103 243.864 299.74 245.264 298.78C246.663 297.819 248.031 297.339 249.365 297.339C249.845 297.339 250.321 297.392 250.793 297.498C250.997 297.547 251.835 297.828 253.308 298.34C252.844 299.74 252.584 301.185 252.527 302.674ZM259.167 301.734C259.965 301.734 260.628 302.051 261.157 302.686C261.686 303.321 261.951 304.204 261.951 305.335C261.951 307.142 261.316 308.765 260.046 310.206C258.777 311.638 257.434 312.354 256.018 312.354C255.147 312.354 254.443 312.069 253.906 311.5C253.377 310.93 253.113 310.153 253.113 309.168C253.113 307.459 253.601 305.88 254.578 304.432C255.806 302.633 257.336 301.734 259.167 301.734ZM258.13 302.649C257.438 302.649 256.767 303.146 256.116 304.139C255.473 305.123 255.151 306.486 255.151 308.228C255.151 309.286 255.351 310.12 255.75 310.73C256.042 311.178 256.433 311.402 256.921 311.402C257.605 311.402 258.228 310.979 258.789 310.132C259.505 309.034 259.863 307.671 259.863 306.043C259.863 304.822 259.696 303.951 259.363 303.431C259.037 302.91 258.626 302.649 258.13 302.649ZM268.481 301.722C269.206 301.722 269.763 301.864 270.154 302.149C270.553 302.426 270.752 302.747 270.752 303.113C270.752 303.333 270.667 303.524 270.496 303.687C270.333 303.85 270.133 303.931 269.897 303.931C269.743 303.931 269.609 303.899 269.495 303.833C269.381 303.76 269.218 303.585 269.006 303.309C268.608 302.78 268.213 302.515 267.822 302.515C267.489 302.515 267.192 302.645 266.931 302.906C266.679 303.158 266.553 303.475 266.553 303.858C266.553 304.192 266.634 304.517 266.797 304.834C266.96 305.144 267.371 305.648 268.03 306.348C268.933 307.308 269.385 308.22 269.385 309.083C269.385 309.945 269.019 310.702 268.286 311.353C267.554 311.996 266.61 312.317 265.454 312.317C264.486 312.317 263.765 312.122 263.293 311.731C262.821 311.333 262.585 310.844 262.585 310.267C262.585 309.982 262.675 309.746 262.854 309.559C263.033 309.371 263.253 309.278 263.513 309.278C263.741 309.278 263.936 309.355 264.099 309.51C264.262 309.656 264.343 309.831 264.343 310.035C264.343 310.116 264.335 310.222 264.319 310.352C264.311 310.458 264.307 310.547 264.307 310.621C264.307 310.889 264.421 311.117 264.648 311.304C264.868 311.491 265.169 311.585 265.552 311.585C265.991 311.585 266.378 311.512 266.711 311.365C267.045 311.211 267.306 310.983 267.493 310.682C267.68 310.372 267.773 310.067 267.773 309.766C267.773 309.473 267.684 309.18 267.505 308.887C267.334 308.594 266.943 308.11 266.333 307.435C265.487 306.491 265.063 305.583 265.063 304.712C265.063 303.915 265.385 303.219 266.028 302.625C266.671 302.023 267.489 301.722 268.481 301.722ZM271.46 304.542L271.094 304.053C271.899 303.248 272.664 302.653 273.389 302.271C274.113 301.889 274.683 301.697 275.098 301.697C275.269 301.697 275.395 301.734 275.476 301.807C275.566 301.88 275.61 301.982 275.61 302.112C275.61 302.275 275.545 302.588 275.415 303.052C275.228 303.736 275.098 304.277 275.024 304.676C276.978 302.69 278.471 301.697 279.504 301.697C279.773 301.697 279.976 301.771 280.115 301.917C280.253 302.063 280.322 302.295 280.322 302.613C280.322 302.955 280.2 303.536 279.956 304.358C280.884 303.39 281.689 302.706 282.373 302.308C283.057 301.901 283.59 301.697 283.972 301.697C284.314 301.697 284.578 301.795 284.766 301.99C284.953 302.186 285.046 302.487 285.046 302.894C285.046 303.138 285.006 303.427 284.924 303.76C284.843 304.094 284.546 305.111 284.033 306.812C283.39 308.92 283.069 310.177 283.069 310.584C283.069 310.861 283.183 310.999 283.411 310.999C283.565 310.999 283.716 310.95 283.862 310.853C284.342 310.511 284.835 310.088 285.339 309.583L285.742 310.022C285.571 310.161 285.25 310.446 284.778 310.877C284.127 311.463 283.679 311.829 283.435 311.976C282.963 312.252 282.564 312.391 282.239 312.391C281.995 312.391 281.779 312.269 281.592 312.024C281.405 311.788 281.311 311.459 281.311 311.036C281.311 310.645 281.368 310.189 281.482 309.668C281.596 309.139 281.93 307.959 282.483 306.128C282.898 304.753 283.105 303.919 283.105 303.626C283.105 303.349 282.983 303.211 282.739 303.211C282.536 303.211 282.263 303.313 281.921 303.516C281.222 303.939 280.636 304.456 280.164 305.066C279.838 305.49 279.553 306.161 279.309 307.081C278.764 309.091 278.357 310.73 278.088 312H276.355L278.174 304.542C278.304 304.004 278.369 303.695 278.369 303.614C278.369 303.484 278.337 303.386 278.271 303.321C278.206 303.248 278.113 303.211 277.991 303.211C277.771 303.211 277.429 303.382 276.965 303.724C276.16 304.301 275.578 304.863 275.22 305.408C274.87 305.945 274.569 306.767 274.316 307.874L273.376 312H271.631L273.01 306.177C273.417 304.493 273.621 303.577 273.621 303.431C273.621 303.243 273.547 303.15 273.401 303.15C273.083 303.15 272.437 303.614 271.46 304.542ZM293.03 308.936L293.433 309.473C291.439 311.369 289.73 312.317 288.306 312.317C287.728 312.317 287.284 312.122 286.975 311.731C286.674 311.341 286.523 310.714 286.523 309.852C286.523 308.11 287.052 306.377 288.11 304.651C289.299 302.69 290.719 301.709 292.371 301.709C292.948 301.709 293.388 301.856 293.689 302.149C293.998 302.434 294.153 302.828 294.153 303.333C294.153 303.862 293.97 304.383 293.604 304.896C293.237 305.408 292.582 305.941 291.638 306.495C291.166 306.763 290.157 307.247 288.611 307.947C288.538 308.387 288.501 308.806 288.501 309.205C288.501 309.782 288.59 310.185 288.77 310.413C288.957 310.641 289.225 310.755 289.575 310.755C289.909 310.755 290.275 310.661 290.674 310.474C291.211 310.222 291.996 309.709 293.03 308.936ZM288.757 307.166C290.068 306.58 291.052 305.949 291.711 305.274C292.159 304.802 292.383 304.334 292.383 303.87C292.383 303.52 292.289 303.243 292.102 303.04C291.923 302.828 291.687 302.723 291.394 302.723C291.093 302.723 290.8 302.837 290.515 303.064C290.133 303.366 289.811 303.821 289.551 304.432C289.176 305.327 288.912 306.238 288.757 307.166ZM298.547 299.854L300.488 299.109L299.609 302.527H302.136L301.941 303.394H299.414L298.34 307.483C298.006 308.712 297.839 309.567 297.839 310.047C297.839 310.267 297.884 310.425 297.974 310.523C298.071 310.621 298.201 310.669 298.364 310.669C298.617 310.669 299.003 310.519 299.524 310.218C300.208 309.819 300.859 309.367 301.477 308.863L301.941 309.424C300.159 310.767 298.966 311.589 298.364 311.89C297.762 312.191 297.278 312.342 296.912 312.342C296.611 312.342 296.37 312.232 296.191 312.012C296.021 311.792 295.935 311.434 295.935 310.938C295.935 310.352 296.09 309.457 296.399 308.252L297.656 303.394H295.679L295.898 302.527H297.864L298.547 299.854ZM308.337 296.485C308.59 296.485 308.797 296.57 308.96 296.741C309.123 296.904 309.204 297.116 309.204 297.376C309.204 297.734 309.078 298.051 308.826 298.328C308.582 298.597 308.305 298.731 307.996 298.731C307.751 298.731 307.548 298.646 307.385 298.475C307.222 298.304 307.141 298.08 307.141 297.803C307.141 297.437 307.259 297.128 307.495 296.875C307.731 296.615 308.012 296.485 308.337 296.485ZM303.528 304.566L302.991 304.151C303.805 303.256 304.545 302.621 305.212 302.247C305.888 301.864 306.462 301.673 306.934 301.673C307.194 301.673 307.393 301.73 307.532 301.844C307.67 301.958 307.739 302.112 307.739 302.308C307.739 302.544 307.475 303.545 306.946 305.311C306.083 308.2 305.652 309.941 305.652 310.535C305.652 310.649 305.68 310.747 305.737 310.828C305.794 310.901 305.855 310.938 305.92 310.938C306.181 310.938 306.848 310.433 307.922 309.424L308.398 309.888C307.284 310.938 306.47 311.609 305.957 311.902C305.444 312.195 305.025 312.342 304.7 312.342C304.415 312.342 304.187 312.252 304.016 312.073C303.853 311.894 303.772 311.646 303.772 311.329C303.772 310.311 304.382 307.825 305.603 303.87C305.66 303.683 305.688 303.516 305.688 303.37C305.688 303.207 305.615 303.125 305.469 303.125C305.306 303.125 305.119 303.191 304.907 303.321C304.704 303.451 304.244 303.866 303.528 304.566ZM315.845 309.351L316.101 310.059C314.164 311.581 312.528 312.342 311.194 312.342C310.486 312.342 309.969 312.09 309.644 311.585C309.326 311.08 309.167 310.442 309.167 309.668C309.167 308.383 309.509 307.06 310.193 305.701C310.876 304.342 311.707 303.3 312.683 302.576C313.448 302.015 314.311 301.734 315.271 301.734C315.873 301.734 316.329 301.848 316.638 302.076C316.947 302.304 317.102 302.58 317.102 302.906C317.102 303.158 317.021 303.366 316.858 303.528C316.695 303.683 316.467 303.76 316.174 303.76C315.889 303.76 315.523 303.63 315.076 303.37C314.612 303.093 314.225 302.955 313.916 302.955C313.517 302.955 313.118 303.138 312.72 303.504C312.329 303.862 311.955 304.562 311.597 305.604C311.239 306.645 311.06 307.691 311.06 308.741C311.06 309.514 311.21 310.112 311.511 310.535C311.731 310.861 312.04 311.023 312.439 311.023C313.391 311.023 314.526 310.466 315.845 309.351ZM322.998 301.722C323.722 301.722 324.28 301.864 324.67 302.149C325.069 302.426 325.269 302.747 325.269 303.113C325.269 303.333 325.183 303.524 325.012 303.687C324.849 303.85 324.65 303.931 324.414 303.931C324.259 303.931 324.125 303.899 324.011 303.833C323.897 303.76 323.735 303.585 323.523 303.309C323.124 302.78 322.729 302.515 322.339 302.515C322.005 302.515 321.708 302.645 321.448 302.906C321.195 303.158 321.069 303.475 321.069 303.858C321.069 304.192 321.151 304.517 321.313 304.834C321.476 305.144 321.887 305.648 322.546 306.348C323.45 307.308 323.901 308.22 323.901 309.083C323.901 309.945 323.535 310.702 322.803 311.353C322.07 311.996 321.126 312.317 319.971 312.317C319.002 312.317 318.282 312.122 317.81 311.731C317.338 311.333 317.102 310.844 317.102 310.267C317.102 309.982 317.192 309.746 317.371 309.559C317.55 309.371 317.769 309.278 318.03 309.278C318.258 309.278 318.453 309.355 318.616 309.51C318.778 309.656 318.86 309.831 318.86 310.035C318.86 310.116 318.852 310.222 318.835 310.352C318.827 310.458 318.823 310.547 318.823 310.621C318.823 310.889 318.937 311.117 319.165 311.304C319.385 311.491 319.686 311.585 320.068 311.585C320.508 311.585 320.894 311.512 321.228 311.365C321.562 311.211 321.822 310.983 322.009 310.682C322.196 310.372 322.29 310.067 322.29 309.766C322.29 309.473 322.201 309.18 322.021 308.887C321.851 308.594 321.46 308.11 320.85 307.435C320.003 306.491 319.58 305.583 319.58 304.712C319.58 303.915 319.902 303.219 320.544 302.625C321.187 302.023 322.005 301.722 322.998 301.722Z" fill="black"/>
<defs>
<linearGradient id="paint0_linear_241_11" x1="250" y1="0" x2="250" y2="460" gradientUnits="userSpaceOnUse">
<stop stop-color="#FF9CDB"/>
<stop offset="0.5" stop-color="#FF5FC1"/>
<stop offset="0.75" stop-color="#FF31A6"/>
<stop offset="1" stop-color="#F51486"/>
</linearGradient>
</defs>
</svg>
