<svg width="105" height="55" viewBox="0 0 105 55" fill="none" xmlns="http://www.w3.org/2000/svg">
<path d="M10.5438 44H2.19414V42.6992C2.51055 42.5703 2.81524 42.4766 3.1082 42.418C3.41289 42.3477 3.68242 42.2539 3.9168 42.1367C4.44414 41.8789 4.70781 41.3867 4.70781 40.6602V22.3965C4.70781 21.6582 4.44414 21.1602 3.9168 20.9023C3.68242 20.7852 3.41289 20.6973 3.1082 20.6387C2.81524 20.5684 2.51055 20.4688 2.19414 20.3398V19.0215H10.5438V44ZM18.3133 23.3105C17.7977 22.4316 17.1355 21.7812 16.327 21.3594C15.5184 20.9258 14.6922 20.709 13.8484 20.709C13.0164 20.709 12.4363 20.7324 12.1082 20.7793V19.0215H13.8309C17.991 19.0215 21.1785 20.3105 23.3934 22.8887C25.3621 25.1855 26.3465 28.0566 26.3465 31.502C26.3465 35.0762 25.327 38 23.2879 40.2734C21.0613 42.7578 17.9734 44 14.0242 44H12.1082V42.2422C12.4832 42.2891 13.0691 42.3125 13.866 42.3125C14.6629 42.3125 15.4656 42.1367 16.2742 41.7852C17.0945 41.4219 17.7684 40.8184 18.2957 39.9746C19.3152 38.3457 19.825 35.5215 19.825 31.502C19.825 27.7637 19.3211 25.0332 18.3133 23.3105ZM41.8398 44.5273L41.3828 44.5449C38.3008 44.5449 35.8164 43.9414 33.9297 42.7344C32.0312 41.5039 31.082 39.916 31.082 37.9707C31.082 35.8262 32.002 34.0215 33.8418 32.5566C34.416 32.0996 35.0547 31.707 35.7578 31.3789L37.1113 33.4883C36.9121 34.1797 36.8125 35.3281 36.8125 36.9336C36.8125 38.2227 37.2988 39.3828 38.2715 40.4141C39.2676 41.4805 40.457 42.1074 41.8398 42.2949V44.5273ZM42.7363 27.8281C44.459 26.7852 45.3203 25.2734 45.3203 23.293C45.3203 22.6484 45.1387 22.0859 44.7754 21.6055C44.4121 21.125 43.8379 20.832 43.0527 20.7266V18.4766C44.7168 18.5938 46.082 19.1094 47.1484 20.0234C48.25 20.9609 48.8008 22.1387 48.8008 23.5566C48.8008 25.5957 47.752 27.207 45.6543 28.3906C45.0449 28.7422 44.418 29.0762 43.7734 29.3926L42.7363 27.8281ZM56.7812 39.1836C56.4062 40.8828 55.8203 42.1484 55.0234 42.9805C54.2383 43.8008 53.084 44.2109 51.5605 44.2109C50.0488 44.2109 48.6309 43.5605 47.3066 42.2598C46.0879 43.373 44.6699 44.082 43.0527 44.3867V42.2949C44.1191 42.1777 45.0391 41.75 45.8125 41.0117C45.4961 40.6602 45.0977 40.2441 44.6172 39.7637C44.1367 39.2832 43.6152 38.75 43.0527 38.1641C42.4902 37.5781 41.8984 36.9512 41.2773 36.2832C40.668 35.6035 40.0645 34.9004 39.4668 34.1738C38.8809 33.4355 38.3184 32.6797 37.7793 31.9062C37.252 31.1211 36.7891 30.3359 36.3906 29.5508C35.5117 27.8047 35.0723 26.3457 35.0723 25.1738C35.0723 24.002 35.2305 23.0352 35.5469 22.2734C35.8633 21.5117 36.3145 20.8555 36.9004 20.3047C38.1074 19.2031 39.7539 18.5938 41.8398 18.4766V20.7266C41.1016 20.8438 40.5508 21.1191 40.1875 21.5527C39.8242 21.9863 39.6426 22.543 39.6426 23.2227C39.6426 24.5586 40.3223 26.2227 41.6816 28.2148C44.0723 31.7305 46.5684 34.7246 49.1699 37.1973C49.6152 36.0137 49.8379 35.0293 49.8379 34.2441C49.8379 33.4473 49.7324 32.9199 49.5215 32.6621C49.3105 32.3926 49.0527 32.1992 48.748 32.082C48.4551 31.9648 48.1445 31.8828 47.8164 31.8359C47.4883 31.7773 47.2129 31.6777 46.9902 31.5371V30.2539H55.5508V31.502C55.2812 31.6191 55.0117 31.7129 54.7422 31.7832C54.4727 31.8535 54.2207 31.9531 53.9863 32.082C53.4473 32.3633 53.0488 32.8555 52.791 33.5586C51.9707 35.832 51.2031 37.5605 50.4883 38.7441C51.5898 39.9277 52.3105 40.5898 52.6504 40.7305C53.002 40.8711 53.2949 40.9414 53.5293 40.9414C53.7754 40.9414 53.9922 40.9062 54.1797 40.8359C54.3789 40.7539 54.5547 40.6191 54.707 40.4316C54.9766 40.1035 55.2285 39.4941 55.4629 38.6035L56.7812 39.1836ZM79.5344 32.2578V22.3965C79.5344 21.6699 79.2473 21.1719 78.673 20.9023C78.4152 20.7734 78.1223 20.6738 77.7941 20.6035C77.466 20.5215 77.132 20.4102 76.7922 20.2695V19.0215H84.5969V20.2695C84.2687 20.4102 83.9406 20.5215 83.6125 20.6035C83.2961 20.6738 83.009 20.7734 82.7512 20.9023C82.177 21.1719 81.8898 21.6699 81.8898 22.3965V35.7383L79.5344 32.2578ZM65.507 27.0195V40.2207C65.507 41.3105 66.1516 42.0312 67.4406 42.3828C67.7805 42.4766 68.1027 42.5938 68.4074 42.7344V44H60.3742V42.7344C60.6672 42.5938 60.9719 42.4766 61.2883 42.3828C61.6164 42.2891 61.9152 42.1602 62.1848 41.9961C62.8293 41.6328 63.1516 41.041 63.1516 40.2207V23.5215L65.507 27.0195ZM63.9074 21.8516C63.3449 21.7461 62.8469 21.6523 62.4133 21.5703C61.4289 21.4062 60.802 21.2891 60.5324 21.2188V19.0215H68.7062L81.8898 38.5332V44H78.8488L63.9074 21.8516Z" fill="black"/>
<path d="M91.1499 15.2666L90.6421 8.43652C90.5321 9.58757 90.3289 10.6624 90.0327 11.6611C89.7365 12.6556 89.4001 13.4258 89.0234 13.9717C88.6468 14.5133 88.2617 14.8942 87.8682 15.1143C87.4746 15.3343 87.0853 15.4443 86.7002 15.4443C86.4674 15.4443 86.2876 15.3957 86.1606 15.2983C86.0379 15.2052 85.9766 15.091 85.9766 14.9556C85.9766 14.8413 86.021 14.7419 86.1099 14.6572C86.203 14.5726 86.3193 14.5303 86.459 14.5303C86.5605 14.5303 86.7065 14.5535 86.897 14.6001C87.0705 14.6466 87.2144 14.6699 87.3286 14.6699C87.5275 14.6699 87.7349 14.5959 87.9507 14.4478C88.2765 14.2277 88.5981 13.8341 88.9155 13.2671C89.2371 12.6958 89.5228 11.9023 89.7725 10.8867C90.0264 9.86686 90.1851 8.8724 90.2485 7.90332C89.2879 7.90332 88.5072 8.14242 87.9062 8.62061C87.4281 9.00146 87.189 9.42676 87.189 9.89648C87.189 10.1038 87.3032 10.3535 87.5317 10.6455C87.6545 10.8021 87.7158 10.929 87.7158 11.0264C87.7158 11.1364 87.6799 11.2274 87.6079 11.2993C87.5402 11.3713 87.4577 11.4072 87.3604 11.4072C87.1953 11.4072 87.0493 11.3141 86.9224 11.1279C86.7489 10.8783 86.6621 10.582 86.6621 10.2393C86.6621 9.75684 86.8229 9.29557 87.1445 8.85547C87.4704 8.41113 87.9189 8.07471 88.4902 7.84619C89.0658 7.61344 89.7386 7.49495 90.5088 7.49072C90.9235 7.49072 91.2557 7.45264 91.5054 7.37646C91.4927 7.75732 91.4863 7.96257 91.4863 7.99219C91.4863 8.03027 91.4927 8.11702 91.5054 8.25244L91.8799 13.0767C92.8997 11.2951 93.8963 9.82878 94.8696 8.67773C95.5594 7.861 96.1603 7.30876 96.6724 7.021C96.3804 7.82503 96.0672 8.88509 95.7329 10.2012L94.9585 13.248C94.9162 13.4173 94.859 13.6649 94.7871 13.9907L94.6348 14.6699C94.9564 14.7461 95.2505 14.7842 95.5171 14.7842C95.7329 14.7842 95.9635 14.7588 96.209 14.708L96.1265 15.0762C95.9106 15.1143 95.7435 15.1333 95.625 15.1333C95.4515 15.1333 95.2018 15.1143 94.876 15.0762C94.6094 15.0423 94.3724 15.0254 94.165 15.0254C93.945 15.0254 93.6953 15.0677 93.416 15.1523C93.6488 14.543 93.8921 13.7241 94.146 12.6958L94.6348 10.7534C94.8421 9.91553 95.022 9.34001 95.1743 9.02686C94.8358 9.41195 94.3132 10.1187 93.6064 11.147C93.0394 11.9764 92.4046 13.0259 91.7021 14.2954L91.1499 15.2666ZM103.642 10.1504H103.299C103.32 9.82031 103.331 9.55583 103.331 9.35693C103.331 8.76025 103.206 8.34554 102.957 8.11279C102.711 7.87581 102.4 7.75732 102.023 7.75732C101.52 7.75732 100.997 7.96257 100.456 8.37305C99.9139 8.7793 99.4484 9.41618 99.0591 10.2837C98.6698 11.147 98.4751 12.0356 98.4751 12.9497C98.4751 13.8341 98.6549 14.5133 99.0146 14.9873C99.3786 15.457 99.8335 15.6919 100.379 15.6919C101.12 15.6919 101.799 15.2476 102.417 14.3589C102.48 14.27 102.546 14.2256 102.614 14.2256C102.669 14.2256 102.715 14.2446 102.753 14.2827C102.792 14.3166 102.811 14.3568 102.811 14.4033C102.811 14.5176 102.669 14.7419 102.385 15.0762C102.106 15.4105 101.753 15.6877 101.325 15.9077C100.898 16.132 100.477 16.2441 100.062 16.2441C99.5627 16.2441 99.0993 16.113 98.6719 15.8506C98.2445 15.5924 97.9123 15.2222 97.6753 14.7397C97.4383 14.2573 97.3198 13.6839 97.3198 13.0195C97.3198 12.0928 97.561 11.1702 98.0435 10.252C98.5301 9.33366 99.1374 8.62484 99.8652 8.12549C100.593 7.62614 101.304 7.37646 101.998 7.37646C102.248 7.37646 102.495 7.40397 102.741 7.45898C102.847 7.48438 103.282 7.63037 104.048 7.89697C103.807 8.62484 103.672 9.37598 103.642 10.1504Z" fill="black"/>
</svg>
