<svg width="80" height="84" viewBox="0 0 80 84" fill="none" xmlns="http://www.w3.org/2000/svg">
<path fill-rule="evenodd" clip-rule="evenodd" d="M21.4773 25.0553C22.5897 24.9856 23.7033 25.0481 24.7972 25.2416C33.4611 26.7693 39.0675 36.0316 37.3229 45.9259C35.5777 55.8232 27.1415 62.6094 18.4776 61.0817C9.81379 59.5541 4.20401 50.2943 5.9497 40.394C6.00075 40.1045 6.05786 39.8129 6.12276 39.5258L6.10338 39.5224C8.73675 24.5878 21.5153 14.3117 34.5886 16.6169L33.528 22.6321C29.2875 21.8843 25.0859 22.8433 21.4773 25.0553ZM56.5813 31.2451C57.6731 31.1756 58.7823 31.2341 59.8958 31.4304C68.5596 32.9581 74.1689 42.2209 72.4242 52.1152C70.6791 62.0126 62.24 68.7982 53.5762 67.2705C44.9123 65.7429 39.3053 56.4836 41.051 46.5833C41.1021 46.2938 41.1592 46.0022 41.2241 45.7152L41.2047 45.7117C43.8381 30.7771 56.6166 20.501 69.69 22.8062L68.6293 28.8214C64.386 28.0732 60.19 29.0331 56.5813 31.2451Z" fill="#FF5FC1"/>
</svg>
