<?xml version="1.0" standalone="no"?>
<!DOCTYPE svg PUBLIC "-//W3C//DTD SVG 20010904//EN"
 "http://www.w3.org/TR/2001/REC-SVG-20010904/DTD/svg10.dtd">
<svg version="1.0" xmlns="http://www.w3.org/2000/svg"
 width="512.000000pt" height="512.000000pt" viewBox="0 0 512.000000 512.000000"
 preserveAspectRatio="xMidYMid meet">

<g transform="translate(0.000000,512.000000) scale(0.100000,-0.100000)"
fill="#000000" stroke="none">
<path d="M3680 4947 c-49 -16 -133 -102 -148 -153 -19 -64 -15 -102 13 -129
49 -50 135 -15 135 55 0 41 39 80 80 80 41 0 80 -39 80 -80 0 -41 -39 -80 -80
-80 -19 0 -40 -9 -55 -25 -24 -23 -25 -28 -25 -170 0 -125 -2 -145 -16 -145
-8 0 -39 -24 -68 -52 -81 -82 -98 -181 -47 -278 l21 -41 -32 5 c-18 3 -105 15
-193 26 -88 12 -175 23 -192 26 l-33 6 0 300 0 299 -25 24 -24 25 -511 0 -511
0 -24 -25 -25 -24 0 -298 0 -299 -507 -33 c-691 -45 -643 -40 -670 -67 -13
-13 -23 -33 -23 -46 0 -13 74 -234 164 -493 l164 -470 -102 -5 -101 -5 -205
-164 c-113 -90 -213 -172 -222 -183 -17 -19 -18 -74 -18 -850 l0 -829 25 -24
24 -25 671 0 671 0 24 25 c25 24 25 24 25 240 l0 215 200 0 200 0 0 -319 0
-320 -292 -3 -293 -3 -57 -27 c-109 -51 -193 -151 -223 -264 -22 -86 -20 -130
10 -159 l24 -25 1071 0 1071 0 24 25 c18 17 25 35 25 62 -1 147 -100 296 -237
361 l-58 27 -292 3 -293 3 0 320 0 319 415 0 416 0 24 25 25 24 0 328 0 328
285 785 c157 431 288 786 290 788 2 3 21 -3 42 -13 95 -45 192 -28 268 49 87
88 100 202 33 299 -19 27 -19 27 0 55 42 60 52 131 30 206 -13 45 -105 146
-132 146 -14 0 -16 16 -16 100 0 84 2 100 16 100 27 0 119 101 132 146 28 94
8 169 -63 239 -51 52 -102 75 -165 75 -123 0 -240 -116 -240 -239 0 -71 85
-106 135 -56 16 15 25 36 25 55 0 41 39 80 80 80 41 0 80 -39 80 -80 0 -19 -9
-40 -25 -55 -15 -16 -36 -25 -55 -25 -19 0 -40 -9 -55 -25 -24 -23 -25 -28
-25 -170 0 -125 -2 -145 -16 -145 -27 0 -119 -101 -132 -146 -22 -75 -12 -146
30 -206 21 -30 22 -26 -28 -96 -2 -3 -148 15 -189 23 -11 2 -26 14 -33 25 -11
18 -10 25 6 48 42 60 52 131 30 206 -13 45 -105 146 -132 146 -14 0 -16 16
-16 100 0 84 2 100 16 100 27 0 119 101 132 146 28 94 8 169 -63 239 -70 71
-152 91 -245 62z m-720 -762 c0 -356 -8 -335 134 -353 49 -7 90 -13 91 -14 1
-2 5 -18 8 -35 6 -28 4 -33 -12 -33 -11 0 -27 -3 -36 -6 -23 -9 -48 -62 -41
-89 5 -20 1 -24 -23 -30 -50 -11 -82 -66 -61 -105 10 -18 8 -20 -17 -20 -49
-1 -89 -51 -76 -98 4 -16 -1 -21 -25 -27 -45 -10 -65 -37 -60 -85 3 -37 2 -40
-22 -40 -40 0 -73 -41 -68 -84 4 -32 2 -36 -19 -36 -13 0 -36 -12 -50 -26 -21
-21 -25 -32 -20 -65 5 -37 4 -39 -23 -39 -39 0 -73 -44 -68 -87 3 -25 0 -33
-12 -33 -12 0 -15 8 -12 33 5 43 -29 87 -68 87 -27 0 -28 2 -23 39 5 33 1 44
-20 65 -14 14 -37 26 -50 26 -21 0 -23 4 -19 36 5 43 -28 84 -68 84 -24 0 -26
3 -22 35 5 45 -18 81 -58 90 -24 5 -31 12 -29 28 4 60 -24 97 -73 97 -26 0
-28 2 -18 20 21 39 -11 94 -61 105 -24 6 -28 10 -23 30 11 44 -29 95 -75 95
-13 0 -17 9 -16 39 l0 39 94 8 c80 6 98 10 118 30 l23 23 0 296 0 295 400 0
400 0 0 -295z m855 -50 c16 -15 25 -36 25 -55 0 -19 -9 -40 -25 -55 -15 -16
-36 -25 -55 -25 -19 0 -40 9 -55 25 -16 15 -25 36 -25 55 0 19 9 40 25 55 15
16 36 25 55 25 19 0 40 -9 55 -25z m640 0 c16 -15 25 -36 25 -55 0 -19 -9 -40
-25 -55 -15 -16 -36 -25 -55 -25 -19 0 -40 9 -55 25 -16 15 -25 36 -25 55 0
19 9 40 25 55 15 16 36 25 55 25 19 0 40 -9 55 -25z m-640 -320 c16 -15 25
-36 25 -55 0 -19 -9 -40 -25 -55 -15 -16 -36 -25 -55 -25 -19 0 -40 9 -55 25
-16 15 -25 36 -25 55 0 19 9 40 25 55 15 16 36 25 55 25 19 0 40 -9 55 -25z
m640 0 c16 -15 25 -36 25 -55 0 -19 -9 -40 -25 -55 -15 -16 -36 -25 -55 -25
-19 0 -40 9 -55 25 -16 15 -25 36 -25 55 0 19 9 40 25 55 15 16 36 25 55 25
19 0 40 -9 55 -25z m-2685 -19 c0 -36 37 -76 70 -76 27 0 28 -2 23 -39 -5 -33
-1 -44 20 -65 14 -14 37 -26 50 -26 21 0 23 -4 19 -36 -5 -43 28 -84 68 -84
24 0 25 -3 22 -40 -5 -48 15 -75 60 -85 24 -6 29 -11 25 -27 -13 -47 27 -97
76 -98 25 0 27 -2 17 -20 -21 -39 11 -94 61 -105 24 -6 28 -10 23 -30 -7 -27
18 -80 41 -89 9 -3 25 -6 35 -6 16 0 18 -6 13 -33 -6 -41 29 -88 68 -90 24 -2
26 -5 21 -39 -4 -30 0 -41 21 -62 l26 -26 -42 -12 c-87 -26 -167 -135 -167
-228 0 -124 116 -240 240 -240 124 0 240 116 240 240 0 93 -80 202 -167 228
l-42 12 26 26 c21 21 25 32 20 63 -4 34 -3 37 22 39 40 3 74 48 68 89 -5 27
-3 33 13 33 10 0 26 3 35 6 23 9 48 62 41 89 -5 20 -1 24 23 30 50 11 82 66
61 105 -10 18 -8 20 18 20 49 0 77 37 73 97 -2 16 5 23 29 28 40 9 63 45 58
90 -4 32 -2 35 22 35 40 0 73 41 68 84 -4 32 -2 36 19 36 13 0 36 12 50 26 21
21 25 32 20 65 -5 37 -4 39 23 39 30 0 70 39 70 67 0 9 7 12 18 9 9 -2 47 -8
85 -12 63 -6 67 -8 67 -32 0 -55 25 -108 75 -157 101 -102 229 -102 331 0 32
31 54 64 59 84 l7 33 61 -7 c34 -4 65 -10 68 -14 4 -3 -130 -382 -297 -841
l-304 -835 0 -287 0 -288 -800 0 -800 0 0 534 c0 494 -1 535 -17 554 -10 11
-110 93 -223 183 l-205 164 -89 5 -89 5 -153 440 c-84 241 -152 440 -151 441
2 2 686 50 750 53 22 1 27 -3 27 -23z m-184 -1213 l173 -138 1 -742 0 -743
-560 0 -560 0 1 743 0 742 172 137 172 137 214 1 213 0 174 -137z m1029 -48
c50 -49 15 -135 -55 -135 -19 0 -40 9 -55 25 -16 15 -25 36 -25 55 0 19 9 40
25 55 15 16 36 25 55 25 19 0 40 -9 55 -25z m25 -1575 l0 -320 -80 0 -80 0 0
320 0 320 80 0 80 0 0 -320z m749 -506 c51 -26 111 -91 111 -121 0 -11 -158
-13 -940 -13 -782 0 -940 2 -940 13 0 30 60 95 111 121 l53 26 776 0 776 0 53
-26z"/>
<path d="M1145 2535 c-16 -15 -25 -36 -25 -55 0 -19 9 -40 25 -55 15 -16 36
-25 55 -25 19 0 40 9 55 25 16 15 25 36 25 55 0 19 -9 40 -25 55 -15 16 -36
25 -55 25 -19 0 -40 -9 -55 -25z"/>
<path d="M1145 2215 c-22 -21 -25 -33 -25 -90 0 -52 -3 -65 -16 -65 -27 0
-119 -101 -132 -146 -28 -94 -8 -169 63 -239 51 -52 102 -75 164 -75 42 0 81
-38 81 -80 0 -41 -39 -80 -80 -80 -41 0 -80 39 -80 80 0 41 -39 80 -80 80 -42
0 -80 -39 -80 -81 0 -62 23 -113 77 -166 28 -29 59 -53 67 -53 13 0 16 -13 16
-65 0 -57 3 -69 25 -90 15 -16 36 -25 55 -25 19 0 40 9 55 25 22 21 25 33 25
90 0 52 3 65 16 65 27 0 119 101 132 146 28 94 8 169 -63 239 -51 52 -102 75
-164 75 -42 0 -81 38 -81 80 0 41 39 80 80 80 41 0 80 -39 80 -80 0 -41 39
-80 80 -80 42 0 80 39 80 81 0 62 -23 113 -77 167 -28 28 -59 52 -67 52 -13 0
-16 13 -16 65 0 57 -3 69 -25 90 -15 16 -36 25 -55 25 -19 0 -40 -9 -55 -25z"/>
</g>
</svg>
