<?xml version="1.0" standalone="no"?>
<!DOCTYPE svg PUBLIC "-//W3C//DTD SVG 20010904//EN"
 "http://www.w3.org/TR/2001/REC-SVG-20010904/DTD/svg10.dtd">
<svg version="1.0" xmlns="http://www.w3.org/2000/svg"
 width="512.000000pt" height="512.000000pt" viewBox="0 0 512.000000 512.000000"
 preserveAspectRatio="xMidYMid meet">

<g transform="translate(0.000000,512.000000) scale(0.100000,-0.100000)"
fill="#000000" stroke="none">
<path d="M3750 4758 c-50 -14 -97 -63 -121 -127 -29 -75 -35 -224 -16 -351 14
-88 13 -130 -14 -595 l-29 -500 0 -1249 c0 -1349 -2 -1304 52 -1410 50 -99
110 -146 186 -146 95 0 191 126 223 294 5 28 9 545 9 1240 l0 1191 -31 530
c-31 529 -31 530 -13 667 14 114 15 150 6 218 -20 142 -67 216 -150 240 -43
12 -55 12 -102 -2z m79 -118 c41 -21 68 -151 56 -265 l-7 -65 -73 0 -72 0 -7
31 c-20 104 5 264 47 294 25 18 32 18 56 5z m31 -477 c0 -16 11 -219 25 -453
14 -234 25 -446 25 -472 l0 -48 -111 0 -110 0 6 68 c3 37 14 234 25 437 11
204 23 398 26 433 l6 62 54 0 c52 0 54 -1 54 -27z m60 -2263 c0 -827 -3 -1185
-11 -1222 -20 -93 -73 -178 -111 -178 -11 0 -30 19 -49 47 -62 99 -59 33 -59
1335 l0 1188 115 0 115 0 0 -1170z"/>
<path d="M4346 4738 c-14 -19 -16 -62 -16 -273 0 -155 -11 -447 -30 -770 l-30
-519 0 -1244 c0 -1344 -2 -1300 52 -1406 50 -99 110 -146 186 -146 95 0 191
126 223 294 5 28 9 545 9 1241 l0 1191 -35 605 c-19 332 -35 663 -35 735 0
153 12 133 -149 243 -113 77 -149 87 -175 49z m204 -320 l0 -108 -50 0 -50 0
0 140 0 140 50 -32 50 -33 0 -107z m10 -255 c0 -16 11 -219 25 -453 14 -234
25 -446 25 -472 l0 -48 -111 0 -110 0 6 68 c3 37 14 234 25 437 11 204 23 398
26 433 l6 62 54 0 c52 0 54 -1 54 -27z m60 -2263 c0 -827 -3 -1185 -11 -1222
-20 -93 -73 -178 -111 -178 -11 0 -30 19 -49 47 -62 99 -59 33 -59 1335 l0
1188 115 0 115 0 0 -1170z"/>
<path d="M1135 4189 c-211 -27 -428 -125 -599 -273 -84 -73 -186 -203 -186
-238 0 -20 70 -122 274 -395 249 -335 274 -372 274 -408 0 -22 30 -186 66
-365 l66 -324 0 -752 c0 -721 1 -755 20 -816 24 -79 81 -162 138 -202 63 -44
142 -48 212 -10 61 33 99 78 143 171 l32 68 5 800 6 800 62 300 c35 165 62
315 60 332 -2 29 32 78 272 400 164 220 276 379 278 395 3 21 -6 41 -36 81
-59 75 -197 207 -270 256 -226 152 -520 217 -817 180z m430 -138 c113 -28 215
-72 309 -135 78 -52 197 -161 236 -216 l18 -25 -279 -372 -279 -373 -55 0
c-30 0 -55 3 -55 8 0 4 25 92 56 195 53 179 55 189 40 212 -17 26 -57 33 -85
16 -8 -5 -42 -103 -77 -217 -62 -207 -63 -209 -90 -209 -27 0 -28 3 -88 201
-34 111 -67 209 -75 218 -27 32 -101 8 -101 -32 0 -9 25 -98 55 -198 30 -101
55 -185 55 -189 0 -3 -26 -5 -57 -5 l-58 1 -277 372 c-230 309 -274 375 -266
390 19 37 165 173 235 219 122 82 267 137 415 158 100 14 331 4 423 -19z m15
-1248 c-1 -5 -25 -125 -53 -268 l-53 -260 -170 -3 -169 -2 -50 247 c-27 137
-51 258 -53 271 l-4 22 276 0 c152 0 276 -3 276 -7z m-122 -1395 l-3 -743 -34
-63 c-39 -71 -75 -102 -120 -102 -43 0 -103 61 -130 134 -21 56 -21 68 -21
786 l0 730 155 0 155 0 -2 -742z"/>
<path d="M2653 4128 c-97 -21 -200 -159 -222 -298 -7 -41 -11 -334 -11 -800
l0 -735 -67 -334 -67 -335 -51 -67 c-119 -159 -194 -350 -202 -514 -4 -60 -1
-123 6 -158 37 -176 198 -358 397 -448 209 -95 432 -75 634 56 137 89 228 198
275 330 32 92 35 244 5 361 -25 99 -112 278 -181 369 l-53 70 -68 340 -68 339
0 751 c0 814 1 805 -56 916 -36 73 -104 135 -167 154 -28 8 -53 15 -56 14 -3
-1 -25 -5 -48 -11z m83 -124 c18 -9 47 -37 64 -62 61 -92 60 -77 60 -859 l0
-713 -160 0 -161 0 3 728 c3 671 5 731 21 773 26 68 93 141 135 148 2 1 19 -6
38 -15z m186 -2029 l55 -275 -273 0 c-151 0 -274 3 -274 8 -1 4 23 127 52 275
l53 267 166 0 166 0 55 -275z m-438 -412 c-46 -106 -84 -292 -70 -347 21 -86
116 -70 116 20 0 75 29 196 64 271 l35 73 70 0 70 0 25 -42 c39 -69 67 -164
73 -257 6 -93 20 -121 60 -121 41 0 63 33 63 95 0 71 -25 194 -55 267 l-24 58
45 0 c44 0 44 0 108 -87 132 -178 191 -342 184 -513 -3 -84 -8 -105 -35 -161
-90 -181 -308 -319 -505 -319 -208 0 -424 134 -516 318 -31 64 -36 86 -40 161
-8 161 58 342 188 519 61 82 61 82 107 82 39 0 44 -2 37 -17z"/>
</g>
</svg>
