<?xml version="1.0" standalone="no"?>
<!DOCTYPE svg PUBLIC "-//W3C//DTD SVG 20010904//EN"
 "http://www.w3.org/TR/2001/REC-SVG-20010904/DTD/svg10.dtd">
<svg version="1.0" xmlns="http://www.w3.org/2000/svg"
 width="512.000000pt" height="512.000000pt" viewBox="0 0 512.000000 512.000000"
 preserveAspectRatio="xMidYMid meet">

<g transform="translate(0.000000,512.000000) scale(0.100000,-0.100000)"
fill="#000000" stroke="none">
<path d="M135 5097 c-37 -31 -71 -185 -87 -390 -35 -463 82 -942 332 -1364
l31 -51 -35 -12 c-84 -27 -147 -103 -181 -217 -39 -129 -43 -374 -9 -540 55
-272 214 -462 458 -549 l74 -26 42 -121 c23 -67 68 -180 100 -251 45 -99 57
-133 49 -147 -15 -28 -116 -96 -177 -119 -31 -12 -85 -23 -121 -26 -84 -7
-116 -19 -130 -50 -29 -64 11 -124 83 -124 22 0 72 -7 109 -15 218 -46 353
-227 389 -522 14 -115 31 -143 87 -143 42 0 78 27 85 63 3 12 8 53 11 92 6 74
54 232 86 284 l19 31 77 -57 c134 -100 289 -171 463 -214 81 -20 121 -23 280
-23 201 -1 266 8 415 55 105 33 210 85 315 154 89 59 253 215 330 314 l55 70
90 0 c49 0 104 5 122 10 29 9 33 7 56 -27 48 -72 130 -142 212 -182 170 -81
320 -82 490 0 85 41 169 115 225 200 44 66 80 187 80 269 l0 68 78 5 c140 8
254 87 316 218 28 58 31 75 31 160 0 84 -3 103 -29 157 -19 41 -48 80 -85 115
l-56 53 0 90 c0 73 -4 99 -23 136 -69 141 -226 204 -378 152 -69 -23 -145
-102 -169 -173 -32 -95 -14 -221 40 -280 13 -14 11 -23 -15 -76 -16 -32 -31
-66 -34 -75 -4 -15 -10 -14 -63 4 -42 15 -85 20 -158 21 -55 1 -103 5 -107 11
-4 5 23 41 61 80 156 162 221 352 221 645 0 284 -66 446 -202 498 l-45 17 63
110 c138 238 235 521 279 810 36 233 29 543 -16 750 -23 107 -33 129 -66 144
-17 8 -582 11 -2033 11 l-2009 0 -26 -23z m1274 -151 c-2 -2 -51 -38 -108 -81
-111 -84 -293 -257 -360 -343 -56 -74 -56 -128 1 -158 51 -26 78 -11 168 91
159 182 397 366 601 465 l46 23 117 -53 c64 -29 118 -56 121 -59 2 -4 -51 -46
-118 -94 -324 -230 -636 -541 -904 -899 -94 -125 -230 -329 -298 -446 -27 -45
-51 -85 -56 -87 -4 -3 -34 37 -67 88 -281 434 -391 956 -311 1475 l12 82 580
0 c319 0 578 -2 576 -4z m2700 -58 c6 -35 16 -128 23 -207 34 -431 -91 -916
-332 -1289 -32 -50 -61 -92 -64 -92 -3 0 -24 33 -47 73 -61 105 -210 326 -298
442 -353 467 -744 826 -1211 1113 l-35 22 976 0 977 0 11 -62z m-1826 -227
c193 -129 506 -391 568 -474 l22 -30 -64 7 c-35 4 -235 12 -444 16 -437 10
-475 15 -662 92 -40 16 -73 34 -73 38 0 11 169 156 276 237 74 57 261 183 270
183 3 0 51 -31 107 -69z m-700 -520 c224 -108 343 -128 817 -136 341 -5 431
-11 585 -36 64 -10 74 -15 114 -58 109 -115 345 -455 466 -669 l58 -104 -6
-191 c-5 -186 -42 -565 -55 -579 -4 -3 -36 0 -72 8 -91 19 -174 17 -264 -6
-113 -29 -190 -73 -277 -160 -205 -203 -235 -508 -73 -751 49 -75 91 -114 177
-170 l58 -38 -59 -68 c-163 -189 -366 -320 -589 -380 -89 -24 -115 -27 -283
-27 -202 0 -249 9 -415 73 -78 30 -210 105 -270 154 l-29 25 52 26 c66 33 153
56 215 56 61 0 97 31 97 85 0 53 -36 85 -94 85 -265 0 -464 215 -492 529 -8
94 -12 108 -36 131 -30 28 -83 26 -113 -4 -18 -18 -25 -39 -30 -92 -8 -75 -34
-204 -41 -204 -9 0 -61 122 -98 230 -103 293 -156 611 -177 1057 l-11 233 63
108 c134 231 276 434 453 646 93 112 234 266 243 266 2 0 41 -18 86 -39z
m-1053 -1037 c22 -9 40 -19 40 -23 11 -290 38 -578 74 -791 13 -74 22 -137 20
-138 -8 -11 -113 60 -161 107 -64 64 -123 180 -147 288 -45 202 -22 480 45
551 24 27 72 29 129 6z m3429 -11 c44 -55 56 -125 56 -318 0 -140 -4 -194 -18
-245 -27 -102 -89 -219 -146 -274 l-49 -49 -41 34 c-28 24 -39 40 -36 54 25
120 55 417 62 612 l6 182 36 15 c59 24 106 20 130 -11z m647 -656 c85 -77 30
-217 -85 -217 -111 0 -166 140 -85 216 30 29 42 34 85 34 42 0 55 -5 85 -33z
m-1155 -227 c219 -41 378 -266 341 -480 -26 -143 -112 -259 -239 -322 -65 -32
-72 -33 -183 -33 -109 0 -118 2 -180 32 -36 18 -88 55 -118 85 -295 294 -31
795 379 718z m1311 -147 c92 -97 70 -257 -46 -323 -92 -53 -188 -38 -231 36
-15 25 -40 60 -57 80 -37 42 -40 93 -9 157 l20 42 83 0 c70 0 91 4 133 26 55
29 64 28 107 -18z m-680 -194 c120 -25 225 -108 276 -217 24 -50 27 -69 27
-162 0 -98 -2 -109 -32 -165 -38 -74 -115 -148 -191 -183 -48 -23 -70 -27
-147 -26 -122 0 -187 26 -269 106 l-61 60 35 26 c151 113 242 289 244 472 1
47 6 88 11 92 14 11 46 10 107 -3z m-2899 -439 c37 -67 97 -134 168 -192 l59
-47 -34 -20 c-53 -33 -158 -150 -192 -215 l-31 -59 -33 62 c-33 62 -126 166
-188 212 l-34 24 60 46 c62 49 139 141 168 203 10 20 20 36 23 36 3 0 19 -23
34 -50z"/>
<path d="M694 4260 c-55 -22 -70 -95 -29 -135 51 -52 145 -16 145 54 0 57 -66
102 -116 81z"/>
<path d="M1295 3470 c-79 -9 -159 -36 -195 -67 -58 -48 -28 -143 46 -143 16 0
53 9 82 20 35 14 76 20 128 20 67 0 101 -8 280 -67 194 -64 206 -67 232 -53
55 32 66 97 23 137 -18 17 -312 119 -406 141 -63 15 -125 19 -190 12z"/>
<path d="M2918 3469 c-32 -5 -142 -36 -245 -70 -213 -70 -250 -94 -239 -152 7
-35 47 -77 74 -77 9 0 105 29 213 65 173 57 207 65 273 65 52 0 93 -6 128 -20
70 -26 109 -26 135 3 30 33 36 62 19 95 -33 64 -220 111 -358 91z"/>
<path d="M1117 2975 c-15 -8 -40 -24 -54 -35 -14 -11 -50 -27 -79 -36 -31 -9
-60 -25 -69 -37 -21 -30 -19 -80 4 -108 28 -35 108 -33 183 4 60 30 74 32 83
16 9 -14 -24 -49 -47 -49 -10 0 -30 -11 -43 -25 -53 -52 -16 -145 56 -145 50
0 114 37 164 93 l45 51 162 2 c236 2 308 28 308 111 0 38 -36 83 -67 83 -10 0
-53 -7 -96 -15 -163 -31 -288 -13 -423 60 -45 25 -86 45 -91 45 -4 0 -21 -7
-36 -15z"/>
<path d="M3127 2955 c-128 -77 -287 -103 -437 -71 -100 21 -117 20 -145 -9
-28 -27 -33 -79 -11 -107 35 -46 181 -73 346 -65 l115 6 28 -39 c38 -54 110
-102 161 -107 50 -6 91 22 101 68 9 41 -14 73 -72 101 -26 13 -49 28 -51 35
-7 24 36 23 86 -2 61 -31 131 -42 161 -25 13 6 29 27 37 45 24 58 -2 97 -82
120 -29 8 -65 26 -81 39 -34 28 -67 46 -85 46 -7 0 -39 -16 -71 -35z"/>
<path d="M1861 2276 c-24 -26 -30 -70 -13 -102 14 -27 114 -80 187 -99 75 -19
204 -19 278 0 88 23 174 70 192 106 13 25 14 37 5 65 -21 64 -70 70 -169 22
-61 -31 -73 -33 -166 -33 -93 0 -105 2 -166 33 -80 39 -117 41 -148 8z"/>
<path d="M2104 1865 c-29 -8 -98 -35 -155 -60 -57 -26 -132 -53 -167 -60 -72
-15 -90 -27 -108 -71 -20 -48 -3 -93 59 -151 64 -60 154 -106 267 -134 112
-28 300 -23 400 11 137 47 236 114 270 184 40 84 6 138 -101 161 -35 7 -104
32 -152 54 -96 44 -207 81 -241 80 -11 0 -44 -7 -72 -14z m287 -239 l53 -25
-34 -15 c-94 -39 -152 -48 -259 -43 -102 5 -231 37 -231 57 0 8 118 61 200 89
l55 18 81 -28 c44 -16 105 -40 135 -53z"/>
<path d="M2032 1167 c-31 -33 -29 -87 4 -118 22 -21 37 -24 117 -28 113 -4
161 9 183 50 12 25 13 37 4 65 -6 19 -20 39 -30 44 -10 6 -72 10 -138 10 -111
0 -120 -1 -140 -23z"/>
<path d="M3360 2036 c-131 -35 -236 -165 -242 -297 -3 -67 17 -104 60 -114 62
-13 112 37 112 113 0 33 33 86 70 114 14 10 50 21 80 25 97 11 132 82 71 144
-33 33 -72 37 -151 15z"/>
<path d="M4512 1001 c-74 -28 -111 -53 -171 -116 -125 -132 -150 -313 -66
-481 127 -257 469 -311 674 -107 66 66 105 141 122 234 32 177 -70 369 -238
451 -60 28 -79 32 -168 35 -80 3 -110 -1 -153 -16z m223 -162 c26 -7 58 -30
92 -63 67 -67 91 -140 74 -225 -48 -239 -364 -285 -474 -70 -34 66 -38 151
-11 218 19 48 98 123 146 138 45 15 124 15 173 2z"/>
<path d="M409 824 c-21 -23 -24 -36 -27 -123 -3 -71 0 -107 12 -134 24 -60 91
-72 136 -27 18 18 20 34 20 143 0 116 -1 125 -23 145 -33 31 -87 29 -118 -4z"/>
<path d="M3604 826 c-186 -87 -196 -351 -16 -449 106 -58 218 -42 302 43 85
84 100 196 43 303 -63 115 -206 160 -329 103z m171 -178 c21 -25 25 -38 21
-62 -8 -39 -31 -63 -66 -71 -80 -18 -134 82 -75 140 36 37 86 34 120 -7z"/>
<path d="M65 478 c-32 -38 -29 -81 11 -115 23 -21 35 -23 130 -23 109 0 155
13 168 45 13 35 6 76 -19 100 -23 24 -30 25 -144 25 l-119 0 -27 -32z"/>
<path d="M588 490 c-14 -11 -28 -31 -30 -44 -7 -36 17 -85 47 -96 34 -13 206
-13 240 0 34 13 59 69 46 104 -18 47 -46 56 -167 56 -96 0 -115 -3 -136 -20z"/>
<path d="M413 316 c-28 -24 -28 -25 -28 -146 0 -121 0 -122 28 -146 37 -31 81
-31 112 1 24 23 25 30 25 145 0 115 -1 122 -25 145 -31 32 -75 32 -112 1z"/>
</g>
</svg>
