<?xml version="1.0" standalone="no"?>
<!DOCTYPE svg PUBLIC "-//W3C//DTD SVG 20010904//EN"
 "http://www.w3.org/TR/2001/REC-SVG-20010904/DTD/svg10.dtd">
<svg version="1.0" xmlns="http://www.w3.org/2000/svg"
 width="512.000000pt" height="512.000000pt" viewBox="0 0 512.000000 512.000000"
 preserveAspectRatio="xMidYMid meet">

<g transform="translate(0.000000,512.000000) scale(0.100000,-0.100000)"
fill="#000000" stroke="none">
<path d="M1368 5110 c-139 -25 -274 -86 -384 -174 -152 -121 -262 -304 -295
-490 -19 -111 -7 -304 25 -399 76 -227 222 -394 431 -493 137 -65 198 -78 355
-78 151 0 240 19 350 74 58 29 62 30 215 30 l155 0 0 154 c0 149 1 155 30 220
94 206 94 475 1 680 -99 220 -298 390 -533 456 -82 24 -272 35 -350 20z m327
-170 c171 -53 328 -185 403 -340 56 -113 72 -183 72 -305 0 -117 -16 -189 -65
-294 -33 -68 -35 -80 -35 -172 l0 -99 -98 0 c-90 0 -103 -3 -153 -29 -101 -55
-191 -76 -319 -76 -196 0 -334 58 -476 199 -133 133 -194 281 -194 471 0 121
17 192 71 303 68 140 209 270 347 322 145 55 310 63 447 20z"/>
<path d="M1277 4704 c-4 -4 -7 -47 -7 -96 l0 -88 -90 0 -90 0 0 -225 0 -225
90 0 89 0 3 -92 3 -93 225 0 225 0 3 93 3 92 89 0 90 0 0 225 0 225 -90 0 -89
0 -3 93 -3 92 -221 3 c-121 1 -223 -1 -227 -4z m293 -239 l0 -95 95 0 95 0 0
-75 0 -75 -95 0 -95 0 0 -95 0 -95 -70 0 -70 0 0 95 0 95 -95 0 -95 0 0 75 0
75 95 0 95 0 0 95 0 95 70 0 70 0 0 -95z"/>
<path d="M3358 4859 c-310 -311 -605 -752 -845 -1264 -97 -207 -96 -187 -18
-220 36 -16 67 -26 69 -24 2 2 25 51 51 109 55 123 217 441 223 436 2 -2 -6
-46 -17 -98 -52 -241 -71 -524 -60 -870 8 -221 15 -304 70 -775 80 -696 72
-852 -52 -988 -73 -79 -142 -110 -244 -110 -70 0 -87 4 -133 29 -98 55 -164
155 -197 301 -22 97 -31 437 -15 592 33 333 129 727 265 1092 25 67 45 126 45
130 0 9 -103 51 -125 51 -25 0 -167 -417 -234 -691 -86 -347 -117 -608 -108
-912 6 -214 19 -299 60 -409 85 -224 268 -351 482 -335 162 12 316 119 393
272 79 159 85 355 27 860 -84 719 -101 983 -85 1272 17 293 50 482 125 708 96
294 241 534 456 760 101 105 100 101 31 169 l-40 39 -124 -124z"/>
<path d="M145 1935 c-51 -18 -120 -91 -134 -141 -7 -27 -11 -317 -11 -916 l0
-878 2260 0 2260 0 0 75 0 75 -2185 0 -2185 0 0 600 0 600 801 -2 801 -3 23
-90 c42 -161 86 -255 172 -368 92 -119 252 -224 401 -262 352 -90 726 86 896
422 26 52 69 193 81 266 l6 37 819 0 820 0 0 -600 0 -600 -150 0 -150 0 0 -75
0 -75 225 0 225 0 0 878 c0 588 -4 890 -11 915 -14 53 -93 132 -144 146 -28 7
-315 11 -924 11 l-884 0 7 -57 c28 -256 25 -515 -8 -640 -34 -131 -108 -256
-201 -342 -236 -215 -612 -210 -837 12 -176 172 -239 394 -239 829 l1 198
-848 0 c-704 -1 -854 -3 -887 -15z m1584 -285 l1 -150 -790 0 -790 0 0 125 c0
120 1 127 25 150 l24 25 765 0 765 0 0 -150z m3216 125 c24 -23 25 -30 25
-150 l0 -125 -814 0 -814 0 -6 83 c-3 45 -7 112 -10 150 l-4 67 800 0 799 0
24 -25z"/>
<path d="M4370 1125 l0 -75 75 0 75 0 0 75 0 75 -75 0 -75 0 0 -75z"/>
<path d="M4670 1125 l0 -75 75 0 75 0 0 75 0 75 -75 0 -75 0 0 -75z"/>
</g>
</svg>
