<?xml version="1.0" standalone="no"?>
<!DOCTYPE svg PUBLIC "-//W3C//DTD SVG 20010904//EN"
 "http://www.w3.org/TR/2001/REC-SVG-20010904/DTD/svg10.dtd">
<svg version="1.0" xmlns="http://www.w3.org/2000/svg"
 width="512.000000pt" height="512.000000pt" viewBox="0 0 512.000000 512.000000"
 preserveAspectRatio="xMidYMid meet">

<g transform="translate(0.000000,512.000000) scale(0.100000,-0.100000)"
fill="#000000" stroke="none">
<path d="M1987 4830 c-54 -5 -149 -16 -210 -25 -137 -20 -1345 -280 -1392
-300 -53 -22 -130 -100 -156 -158 -35 -78 -33 -193 4 -264 57 -109 159 -173
276 -173 39 0 331 59 847 171 434 94 848 179 919 190 384 57 840 38 1225 -51
261 -60 464 -133 742 -267 186 -90 198 -94 224 -81 40 19 61 59 49 94 -19 54
-356 305 -582 433 -382 217 -812 358 -1264 416 -146 19 -541 27 -682 15z m528
-80 c436 -37 814 -141 1200 -330 99 -48 231 -120 294 -159 117 -73 365 -255
391 -286 8 -10 -35 8 -96 38 -644 323 -1341 438 -2037 336 -77 -11 -492 -96
-924 -189 -458 -100 -806 -170 -836 -170 -126 1 -227 106 -227 236 0 86 79
192 160 214 94 26 1249 271 1345 285 233 34 511 43 730 25z"/>
<path d="M2569 3391 l-54 -59 -110 -6 c-499 -28 -915 -135 -1320 -340 -234
-119 -515 -307 -515 -344 0 -21 18 -42 37 -42 8 0 55 29 105 65 119 86 248
165 383 236 363 190 807 316 1190 335 105 6 109 5 87 -11 -13 -9 -69 -38 -125
-65 -87 -41 -122 -51 -236 -69 -309 -49 -646 -158 -926 -298 -193 -98 -515
-312 -515 -344 0 -22 29 -52 44 -46 7 3 56 36 109 75 191 138 445 276 674 366
103 40 324 109 330 102 2 -2 -17 -21 -42 -42 -99 -81 -197 -232 -243 -374
-125 -386 51 -813 411 -999 l60 -31 -39 0 c-139 0 -444 42 -624 86 -132 32
-370 111 -477 158 -45 20 -88 33 -97 30 -18 -7 -30 -39 -20 -55 20 -34 354
-156 567 -209 495 -121 1027 -119 1518 5 280 71 548 179 786 315 115 67 323
205 361 240 28 26 28 56 1 71 -18 9 -28 6 -63 -20 -232 -173 -488 -315 -754
-417 -94 -37 -301 -104 -319 -104 -3 0 26 30 64 68 240 234 323 574 215 881
-73 204 -205 360 -399 468 l-58 33 40 0 c72 0 268 -20 395 -41 190 -31 367
-80 560 -155 96 -37 191 -68 210 -68 43 0 165 47 320 125 79 39 177 102 310
199 221 162 228 167 180 147 -203 -87 -269 -112 -388 -151 -76 -24 -189 -56
-252 -70 -113 -25 -115 -26 -128 -7 -7 11 -73 43 -146 71 l-133 53 36 52 c49
70 69 129 51 150 -24 29 -53 13 -81 -45 -15 -30 -42 -72 -60 -93 l-34 -37 -68
21 c-38 11 -116 31 -174 44 -58 13 -107 26 -109 28 -3 2 9 30 26 62 33 64 37
87 15 105 -27 22 -49 6 -82 -59 -49 -99 -40 -95 -190 -77 -71 9 -155 16 -186
16 -31 0 -57 3 -57 7 0 3 11 21 25 39 28 36 31 54 13 72 -23 23 -45 12 -99
-47z m186 -156 c44 -3 100 -8 124 -12 l45 -6 -45 -22 c-77 -39 -223 -65 -370
-65 l-131 0 83 60 84 60 65 -5 c36 -2 101 -7 145 -10z m479 -77 c152 -36 153
-46 3 -73 -86 -16 -99 -16 -202 0 -149 23 -147 21 -89 55 27 15 56 36 64 45
17 20 37 18 224 -27z m382 -119 c58 -23 104 -42 102 -44 -2 -2 -51 -9 -109
-16 -100 -11 -110 -10 -175 11 -38 12 -75 24 -83 26 -21 7 111 72 137 68 12
-3 70 -23 128 -45z m-1141 -42 c118 -39 199 -90 301 -192 77 -77 98 -105 138
-185 65 -133 80 -200 80 -345 0 -145 -15 -212 -81 -345 -39 -81 -60 -109 -137
-185 -104 -102 -168 -144 -293 -189 -84 -30 -95 -31 -243 -31 -148 0 -159 1
-243 31 -125 45 -190 87 -293 189 -77 77 -98 105 -138 185 -65 133 -80 200
-80 345 0 144 15 212 80 343 94 191 271 334 485 392 110 30 313 23 424 -13z"/>
<path d="M2145 2627 c-109 -37 -186 -103 -232 -202 -24 -51 -28 -73 -28 -145
0 -72 4 -94 28 -146 36 -77 104 -145 182 -181 51 -24 73 -28 145 -28 72 0 94
4 145 28 78 36 146 104 182 181 24 52 28 74 28 146 0 72 -4 94 -28 146 -57
123 -177 204 -311 211 -41 1 -88 -3 -111 -10z m186 -84 c77 -25 149 -98 173
-177 68 -217 -128 -416 -349 -352 -108 32 -195 150 -195 265 0 57 26 132 61
174 78 95 192 128 310 90z"/>
<path d="M4185 2881 c-3 -6 -13 -61 -21 -123 -21 -144 -14 -395 14 -515 l18
-81 -21 -10 c-31 -14 -50 -110 -50 -247 0 -98 15 -190 139 -865 116 -630 142
-758 158 -772 25 -22 58 -8 58 25 0 12 -63 366 -141 787 -133 723 -140 770
-136 860 8 145 6 142 128 163 57 10 116 21 131 24 24 4 30 -1 57 -48 17 -30
41 -79 52 -109 12 -31 84 -396 164 -828 97 -531 147 -778 157 -789 25 -24 58
-8 58 29 0 51 -269 1508 -292 1578 -39 123 -114 248 -153 254 -16 2 -22 16
-32 74 -32 195 -112 410 -209 564 -24 37 -64 52 -79 29z m155 -390 c42 -125
70 -276 54 -290 -5 -5 -34 -12 -65 -16 l-55 -7 -12 54 c-30 135 -43 371 -25
458 l6 33 29 -58 c16 -31 47 -110 68 -174z"/>
</g>
</svg>
