<?xml version="1.0" standalone="no"?>
<!DOCTYPE svg PUBLIC "-//W3C//DTD SVG 20010904//EN"
 "http://www.w3.org/TR/2001/REC-SVG-20010904/DTD/svg10.dtd">
<svg version="1.0" xmlns="http://www.w3.org/2000/svg"
 width="512.000000pt" height="512.000000pt" viewBox="0 0 512.000000 512.000000"
 preserveAspectRatio="xMidYMid meet">

<g transform="translate(0.000000,512.000000) scale(0.100000,-0.100000)"
fill="#000000" stroke="none">
<path d="M1811 4946 c-6 -8 -18 -46 -27 -86 -16 -77 -13 -133 12 -211 10 -30
14 -78 12 -134 l-3 -88 -254 -76 c-154 -46 -258 -82 -264 -92 -7 -12 6 -63 51
-197 59 -178 60 -182 39 -186 -12 -3 -53 -10 -92 -16 -201 -34 -463 -117 -574
-183 -74 -43 -136 -106 -151 -152 -22 -67 -8 -249 32 -400 l34 -131 -64 -79
c-142 -180 -267 -389 -304 -508 -24 -82 -21 -126 17 -203 52 -105 268 -306
430 -400 l50 -29 -115 -6 c-211 -12 -289 -35 -339 -98 -79 -100 -112 -230 -93
-363 25 -170 115 -278 255 -303 20 -4 37 -9 37 -11 0 -2 -13 -24 -30 -50 -49
-78 -65 -138 -65 -244 1 -197 77 -322 221 -366 53 -16 181 -17 348 -5 65 5
116 5 125 0 9 -5 260 -45 559 -89 l543 -80 1367 0 c1051 0 1371 3 1380 12 9 9
12 268 12 1108 l-1 1095 -387 609 -387 609 -797 456 c-439 251 -964 558 -1168
684 -204 125 -376 227 -384 227 -7 0 -19 -6 -25 -14z m379 -286 c173 -106 317
-194 320 -197 9 -8 -35 -76 -65 -99 -17 -12 -51 -28 -75 -35 -41 -11 -51 -9
-115 16 -96 38 -218 110 -280 167 -61 55 -99 122 -115 202 -11 56 -6 151 8
142 4 -2 149 -90 322 -196z m-193 -261 c70 -53 195 -119 271 -144 108 -35 226
17 303 134 l15 24 760 -433 c417 -238 769 -442 781 -454 11 -11 186 -281 387
-599 l366 -579 0 -1054 0 -1054 -1187 1 -1188 1 617 206 c658 221 661 222 720
308 35 51 52 123 45 190 -4 40 -3 52 6 47 7 -4 39 -26 72 -49 87 -59 169 -104
192 -104 27 0 46 24 39 47 -4 10 -43 39 -89 66 -455 264 -813 765 -892 1252
-20 119 -19 356 1 476 8 52 36 156 61 232 l46 137 -20 23 c-11 12 -142 153
-292 314 l-272 292 -95 45 c-135 64 -348 186 -485 278 -141 94 -204 166 -244
279 -18 48 -37 178 -29 191 3 5 16 1 28 -9 13 -10 50 -39 83 -64z m-172 -98
c9 -55 64 -166 112 -226 41 -51 148 -131 303 -224 l85 -51 167 -457 c92 -252
168 -463 168 -469 0 -6 -95 -44 -212 -83 l-211 -71 -61 58 c-102 97 -185 147
-320 191 l-79 26 -204 609 c-111 336 -202 611 -200 612 1 1 82 25 179 53 98
28 188 56 200 61 49 19 66 13 73 -29z m-266 -893 c72 -215 129 -393 128 -394
-2 -2 -32 1 -67 6 -36 5 -84 10 -106 10 l-41 0 -79 218 c-75 204 -81 217 -106
220 -57 7 -54 -18 38 -269 47 -128 90 -237 97 -241 7 -4 38 -8 69 -8 230 0
501 -95 627 -218 95 -93 94 -106 -3 -55 -167 86 -423 148 -514 124 -95 -26
-180 -156 -190 -292 -6 -83 8 -120 51 -143 l32 -16 -35 6 c-57 11 -317 83
-378 106 -105 39 -192 143 -288 342 -96 200 -164 449 -164 601 0 81 7 104 49
148 73 79 328 174 611 227 52 10 105 19 117 19 19 1 33 -33 152 -391z m1407
-88 c185 -198 263 -288 259 -299 -7 -18 -65 -190 -71 -208 -2 -9 -19 -3 -51
17 -79 50 -170 73 -272 68 l-88 -4 -152 415 c-83 229 -151 419 -151 422 0 3
59 -24 131 -61 l130 -66 265 -284z m-2266 -508 c75 -173 179 -323 266 -382 49
-34 195 -85 376 -130 134 -34 184 -57 273 -122 52 -38 167 -160 140 -147 -6 3
-57 28 -115 56 -118 58 -247 98 -362 112 -149 17 -207 -18 -275 -164 -20 -45
-28 -80 -31 -142 -4 -77 -3 -83 21 -107 31 -31 19 -33 -54 -7 -147 50 -327
168 -466 306 -104 103 -153 178 -153 237 0 43 45 153 102 247 93 156 226 337
238 324 4 -4 22 -41 40 -81z m2314 -31 c34 -16 74 -43 89 -59 l27 -28 -10
-122 c-12 -134 -2 -305 26 -440 38 -190 136 -425 252 -602 83 -129 136 -195
254 -316 89 -92 113 -122 134 -175 48 -118 30 -221 -48 -283 -23 -18 -218 -87
-657 -232 -343 -113 -638 -208 -655 -211 -70 -11 -179 44 -212 108 -34 68
-334 945 -334 980 0 21 -8 47 -20 62 -20 25 -40 68 -54 115 -6 19 -4 22 21 22
48 0 102 20 118 43 30 43 11 161 -38 235 -13 21 -27 55 -31 76 -12 64 -54 136
-120 204 l-61 64 65 -9 c36 -4 184 -8 328 -8 l264 0 25 30 c23 26 25 35 20 92
-6 56 -31 125 -60 161 -11 13 -60 153 -55 157 5 3 482 164 503 169 11 3 53 3
94 1 57 -3 88 -11 135 -34z m-1214 -77 c143 -29 353 -128 436 -205 38 -36 76
-117 77 -167 l2 -47 -105 1 c-145 2 -558 85 -685 139 l-38 15 5 65 c4 47 14
80 40 127 55 101 86 109 268 72z m-500 -588 c164 -25 352 -103 467 -195 56
-44 100 -119 109 -184 6 -44 5 -46 -21 -53 -80 -20 -491 51 -715 123 l-85 28
1 67 c1 83 40 170 93 205 40 27 31 27 151 9z m-178 -450 c48 -7 131 -24 185
-37 l98 -24 -152 -5 -152 -5 -35 -34 c-20 -19 -41 -51 -47 -70 -26 -79 -3
-278 37 -322 10 -11 36 -22 58 -26 l41 -7 -30 -7 c-123 -32 -600 -60 -673 -40
-157 43 -220 278 -126 469 41 84 64 102 153 119 86 16 521 9 643 -11z m565
-56 c15 0 24 -9 32 -31 10 -30 10 -31 -15 -25 -14 4 -46 20 -72 37 l-47 31 40
-6 c22 -3 50 -6 62 -6z m-232 -101 c198 -17 326 -53 342 -96 10 -27 -60 -79
-151 -111 -146 -53 -415 -99 -500 -85 -30 5 -35 10 -46 49 -8 26 -11 78 -8
129 6 120 12 125 142 125 56 0 155 -5 221 -11z m445 -442 c42 -119 74 -217 71
-217 -21 1 -113 39 -153 63 -95 57 -408 147 -512 147 -16 0 -25 4 -21 10 3 6
15 10 25 10 30 0 179 50 240 80 30 15 75 38 100 49 25 12 70 35 100 50 30 16
59 28 64 27 4 -1 43 -99 86 -219z m-605 -81 c116 -17 279 -52 299 -63 8 -4
-44 -6 -116 -4 -78 2 -147 -1 -168 -8 -143 -43 -176 -236 -59 -349 44 -43 89
-54 228 -54 l116 0 -55 -14 c-183 -46 -449 -81 -679 -90 -189 -7 -232 0 -287
48 -47 41 -71 91 -85 176 -16 97 -5 169 39 255 42 82 70 101 168 117 84 13
480 4 599 -14z m297 -156 c226 -13 376 -47 403 -90 14 -23 -9 -50 -62 -76 -90
-42 -217 -64 -410 -71 -192 -7 -205 -3 -243 60 -39 63 -20 139 40 169 40 21
49 21 272 8z m484 -272 c60 -185 104 -249 199 -294 l50 -24 -60 0 c-34 0 -214
23 -400 50 -503 74 -513 76 -485 83 276 63 362 92 441 144 23 16 51 33 63 38
17 8 156 80 163 84 1 1 14 -36 29 -81z"/>
<path d="M2769 2104 c-11 -14 -8 -31 21 -113 61 -173 95 -254 111 -264 20 -13
236 69 250 96 12 21 -5 57 -26 57 -9 0 -53 -15 -99 -34 l-84 -33 -52 141 c-29
77 -57 147 -62 154 -14 17 -43 15 -59 -4z"/>
<path d="M2652 2068 c-7 -7 -12 -17 -12 -24 0 -17 121 -337 133 -352 13 -17
47 -12 60 9 8 13 -5 57 -53 185 -34 93 -67 175 -73 182 -12 15 -39 16 -55 0z"/>
<path d="M2416 1987 c-18 -13 -18 -21 4 -208 12 -106 26 -199 32 -206 14 -17
43 -16 58 2 8 10 10 31 6 63 l-6 49 41 12 c41 12 42 12 78 -23 20 -20 44 -36
52 -36 19 0 39 20 39 38 0 14 -211 268 -252 305 -24 20 -29 21 -52 4z m112
-209 c-22 -13 -28 -9 -28 19 0 26 0 26 20 8 16 -14 17 -20 8 -27z"/>
<path d="M2212 1908 c-17 -17 -16 -28 23 -130 19 -51 33 -93 32 -94 -1 -2 -49
33 -107 77 -60 45 -113 78 -124 76 -44 -5 -42 -28 24 -203 34 -93 67 -175 73
-182 13 -17 47 -12 60 9 8 13 1 41 -26 114 -21 54 -36 99 -34 101 1 2 50 -33
107 -77 62 -47 113 -78 124 -77 44 7 42 29 -24 204 -34 93 -67 175 -73 182
-12 15 -39 16 -55 0z"/>
<path d="M2621 1496 c-269 -101 -489 -190 -495 -199 -12 -19 69 -234 95 -250
13 -8 130 32 510 175 271 101 497 191 502 200 8 11 -2 45 -33 124 -48 122 -56
134 -79 133 -9 0 -234 -83 -500 -183z m512 -14 c2 -22 -26 -34 -433 -187 -307
-115 -437 -160 -442 -151 -4 6 -16 35 -27 62 l-20 51 442 166 442 165 18 -41
c10 -23 19 -52 20 -65z"/>
</g>
</svg>
